<?xml version="1.0" encoding="utf-8"?>
<!-- Generator: Adobe Illustrator 18.1.1, SVG Export Plug-In . SVG Version: 6.00 Build 0)  -->
<svg version="1.1" id="Layer_1" xmlns="http://www.w3.org/2000/svg" xmlns:xlink="http://www.w3.org/1999/xlink" x="0px" y="0px"
	 viewBox="-23 348.3 208.8 96.7" enable-background="new -23 348.3 208.8 96.7" xml:space="preserve">
<image display="none" overflow="visible" width="80" height="36" xlink:href="OK.png"  transform="matrix(2.6154 0 0 2.6154 -23 349.847)">
</image>
<g>
	<defs>
		<rect id="SVGID_1_" x="-21.5" y="349.8" width="560.3" height="94.2"/>
	</defs>
	<clipPath id="SVGID_2_">
		<use xlink:href="#SVGID_1_"  overflow="visible"/>
	</clipPath>
	<path clip-path="url(#SVGID_2_)" fill="#F0545E" d="M-21.5,396.3c0-25.3,20.7-46,46.2-46c25.3,0,46,20.7,46,46
		c0,25.5-20.7,46.2-46,46.2C-0.8,442.4-21.5,421.8-21.5,396.3"/>
</g>
<g>
	<defs>
		<rect id="SVGID_3_" x="-21.5" y="349.8" width="560.3" height="94.2"/>
	</defs>
	<clipPath id="SVGID_4_">
		<use xlink:href="#SVGID_3_"  overflow="visible"/>
	</clipPath>
</g>
<g>
	<defs>
		<rect id="SVGID_5_" x="-21.5" y="349.8" width="560.3" height="94.2"/>
	</defs>
	<clipPath id="SVGID_6_">
		<use xlink:href="#SVGID_5_"  overflow="visible"/>
	</clipPath>
</g>
<g>
	<defs>
		<rect id="SVGID_7_" x="-21.5" y="349.8" width="560.3" height="94.2"/>
	</defs>
	<clipPath id="SVGID_8_">
		<use xlink:href="#SVGID_7_"  overflow="visible"/>
	</clipPath>
</g>
<g>
	<defs>
		<rect id="SVGID_9_" x="-374.5" y="349.8" width="560.3" height="94.2"/>
	</defs>
	<clipPath id="SVGID_10_">
		<use xlink:href="#SVGID_9_"  overflow="visible"/>
	</clipPath>
	<polygon clip-path="url(#SVGID_10_)" fill="#F0545E" points="80.6,442.2 80.6,350 156.7,350 122.2,396 156.7,442.2 	"/>
</g>
<g>
	<defs>
		<rect id="SVGID_11_" x="-21.5" y="349.8" width="560.3" height="94.2"/>
	</defs>
	<clipPath id="SVGID_12_">
		<use xlink:href="#SVGID_11_"  overflow="visible"/>
	</clipPath>
	<path clip-path="url(#SVGID_12_)" fill="#77C29A" d="M161.8,430.6c0-7.5,7.3-13.4,15-11c4.1,1.3,7.2,4.9,7.8,9.1
		c1.2,7.2-4.4,13.5-11.4,13.5C167,442.2,161.8,437,161.8,430.6"/>
</g>
<g>
	<defs>
		<rect id="SVGID_13_" x="-21.5" y="349.8" width="560.3" height="94.2"/>
	</defs>
	<clipPath id="SVGID_14_">
		<use xlink:href="#SVGID_13_"  overflow="visible"/>
	</clipPath>
	<path clip-path="url(#SVGID_14_)" fill="#0C455C" d="M46.3,406.7c0,6.2-5,11.3-11.3,11.3c-6.2,0-11.3-5.1-11.3-11.3"/>
</g>
<g>
	<defs>
		<rect id="SVGID_15_" x="-21.5" y="349.8" width="560.3" height="94.2"/>
	</defs>
	<clipPath id="SVGID_16_">
		<use xlink:href="#SVGID_15_"  overflow="visible"/>
	</clipPath>
</g>
</svg>
