<svg xmlns="http://www.w3.org/2000/svg" xmlns:xlink="http://www.w3.org/1999/xlink" viewBox="0 0 563.498 96.667"><defs><path id="a" d="M1.497 1.514h560.278v94.153H1.497z"/></defs><clipPath id="b"><use xlink:href="#a" overflow="visible"/></clipPath><path clip-path="url(#b)" fill="#F0545E" d="M1.497 47.946c0-25.338 20.696-46.035 46.168-46.035 25.338 0 46.035 20.7 46.035 46.04 0 25.475-20.697 46.17-46.035 46.17-25.473 0-46.168-20.695-46.168-46.17"/><path clip-path="url(#b)" fill="#71C4EE" d="M130.24 1.646v28.228h34.56V93.85H95.682V1.646"/><path clip-path="url(#b)" fill="#77C29A" d="M168.774 1.646h34.493V93.85h-34.493z"/><path clip-path="url(#b)" fill="#F0545E" d="M298.12 1.78l-46.037 92.07-46.166-92.07"/><path clip-path="url(#b)" fill="#71C4EE" d="M300.763 1.646h34.492V93.85h-34.492z"/><path clip-path="url(#b)" fill="#FEE95A" d="M337.243 93.85L383.41 1.645l46.034 92.203"/><path clip-path="url(#b)" fill="#F0545E" d="M456.636 93.85V1.645h76.017L498.16 47.68l34.493 46.17"/><path clip-path="url(#b)" fill="#77C29A" d="M538.823 82.306c0-7.547 7.27-13.418 14.96-10.982 4.073 1.29 7.16 4.854 7.838 9.074 1.16 7.21-4.39 13.45-11.383 13.45-6.235 0-11.41-5.173-11.41-11.542"/><path clip-path="url(#b)" fill="#0C455C" d="M69.34 58.37c0 6.228-5.047 11.277-11.275 11.277-6.227 0-11.276-5.05-11.276-11.276"/><path clip-path="url(#b)" fill="#83CDBE" d="M230.36 1.782L251.446 42.6l-.515.265L229.71 1.78"/><path clip-path="url(#b)" fill="none" stroke="#F0545E" stroke-width=".434" stroke-miterlimit="10" d="M393.02 74.287h-24.764l12.382-26.915"/></svg>