<?xml version="1.0" encoding="utf-8"?>
<!-- Generator: Adobe Illustrator 16.0.0, SVG Export Plug-In . SVG Version: 6.00 Build 0)  -->
<!DOCTYPE svg PUBLIC "-//W3C//DTD SVG 1.1//EN" "http://www.w3.org/Graphics/SVG/1.1/DTD/svg11.dtd">
<svg version="1.1" id="Layer_1" xmlns="http://www.w3.org/2000/svg" xmlns:xlink="http://www.w3.org/1999/xlink" x="0px" y="0px"
	 width="563.498px" height="96.667px" viewBox="0 0 563.498 96.667" enable-background="new 0 0 563.498 96.667"
	 xml:space="preserve">
<g>
	<defs>
		<rect id="SVGID_1_" x="1.497" y="1.514" width="560.278" height="94.153"/>
	</defs>
	<clipPath id="SVGID_2_">
		<use xlink:href="#SVGID_1_"  overflow="visible"/>
	</clipPath>
	<path clip-path="url(#SVGID_2_)" fill="#F0545E" d="M1.497,47.946c0-25.338,20.696-46.035,46.168-46.035
		c25.338,0,46.035,20.697,46.035,46.035c0,25.473-20.697,46.168-46.035,46.168C22.192,94.114,1.497,73.419,1.497,47.946"/>
	<polygon clip-path="url(#SVGID_2_)" fill="#71C4EE" points="130.241,1.646 130.241,29.874 164.8,29.874 164.8,93.85 95.682,93.85 
		95.682,1.646 	"/>
	<rect x="168.774" y="1.646" clip-path="url(#SVGID_2_)" fill="#77C29A" width="34.493" height="92.203"/>
	<polygon clip-path="url(#SVGID_2_)" fill="#F0545E" points="298.119,1.78 252.083,93.849 205.917,1.78 	"/>
	<rect x="300.763" y="1.646" clip-path="url(#SVGID_2_)" fill="#71C4EE" width="34.492" height="92.203"/>
	<polygon clip-path="url(#SVGID_2_)" fill="#FEE95A" points="337.243,93.849 383.411,1.646 429.444,93.849 	"/>
	<polygon clip-path="url(#SVGID_2_)" fill="#F0545E" points="456.636,93.849 456.636,1.646 532.653,1.646 498.161,47.681 
		532.653,93.849 	"/>
	<path clip-path="url(#SVGID_2_)" fill="#77C29A" d="M538.823,82.306c0-7.547,7.269-13.418,14.959-10.982
		c4.074,1.29,7.161,4.854,7.839,9.074c1.159,7.211-4.395,13.451-11.389,13.451C543.997,93.849,538.823,88.675,538.823,82.306"/>
	<path clip-path="url(#SVGID_2_)" fill="#0C455C" d="M69.341,58.371c0,6.227-5.048,11.276-11.276,11.276
		c-6.227,0-11.276-5.05-11.276-11.276"/>
	<polygon clip-path="url(#SVGID_2_)" fill="#83CDBE" points="230.36,1.782 251.446,42.6 250.931,42.865 229.707,1.779 	"/>
	<polyline clip-path="url(#SVGID_2_)" fill="none" stroke="#F0545E" stroke-width="0.434" stroke-miterlimit="10" points="
		393.019,74.287 368.256,74.287 380.638,47.372 	"/>
</g>
</svg>
